<svg id="Camada_1" data-name="Camada 1" xmlns="http://www.w3.org/2000/svg" viewBox="0 0 643 260"><defs><style>.cls-1{fill:#00d362;}.cls-2{fill:#1d1d1b;}</style></defs><path class="cls-1" d="M101.67,152.88a52.65,52.65,0,0,0-34.5-12.54h-40v86.07h40A53.68,53.68,0,0,0,86.34,223a48.73,48.73,0,0,0,15.53-9.28A45.14,45.14,0,0,0,112.3,200a38.16,38.16,0,0,0-.07-33.51A43.88,43.88,0,0,0,101.67,152.88Zm-9.6,40.39a25.07,25.07,0,0,1-6.09,8,28.92,28.92,0,0,1-9.09,5.36,31.45,31.45,0,0,1-11.13,2H48.14V158.17H65.77a31.45,31.45,0,0,1,11.13,2A28.49,28.49,0,0,1,86,165.55a25.91,25.91,0,0,1,6.08,8,22.16,22.16,0,0,1,2.24,9.77A22.4,22.4,0,0,1,92.07,193.27ZM370.35,179v16.11h28.82a29.73,29.73,0,0,1-11.4,11.26,34.21,34.21,0,0,1-17.4,4.36,37.35,37.35,0,0,1-23.86-8.55,28.48,28.48,0,0,1-7.24-9,23.14,23.14,0,0,1,0-21.39,28.59,28.59,0,0,1,7.24-9,37.45,37.45,0,0,1,10.76-6.21,36.9,36.9,0,0,1,13.09-2.33,29.91,29.91,0,0,1,7.71,1,33.27,33.27,0,0,1,6.85,2.65A33.62,33.62,0,0,1,395,165.87l18.78-10.2a56.66,56.66,0,0,0-18.86-13.77A58.76,58.76,0,0,0,370.36,137,67.59,67.59,0,0,0,348,140.6a59.74,59.74,0,0,0-18.17,9.84,47.47,47.47,0,0,0-12.16,14.45,37,37,0,0,0,.08,35.35,47.24,47.24,0,0,0,12.31,14.45,60.71,60.71,0,0,0,18.17,9.71,67.37,67.37,0,0,0,22.1,3.57,65,65,0,0,0,22-3.63A57.41,57.41,0,0,0,410,214.51a46.35,46.35,0,0,0,11.7-14.46A37.74,37.74,0,0,0,426,182.47v-1.72a9.91,9.91,0,0,0-.15-1.72Zm84.48-2.58-22.79-37H408L443.3,194v31.48h23.1V194l35.23-54.6h-24Zm137.24-37-31.71,34.92-31.88-34.92H505.39v86.08h23.09V171.16l31.88,34.43,31.71-34.43v54.35h23.1V139.43Zm-317.2-.62H154.22c-18.79,0-34,16.43-34,36.73v14.79c0,20.29,15.23,36.74,34,36.74H274.87c18.79,0,34-16.44,34-36.74V175.54C308.9,155.26,293.66,138.81,274.87,138.81ZM289,187.86c0,12.13-9.11,21.95-20.33,21.95H160.44c-11.23,0-20.33-9.82-20.33-21.95V178c0-12.12,9.1-21.95,20.33-21.95h108.2c11.22,0,20.33,9.83,20.33,21.95Z"/><path class="cls-2" d="M406.69,225.51a6.71,6.71,0,0,0-3.78,1.13c-8.71,5.86-20.38,9.45-33.2,9.45s-24.49-3.59-33.2-9.45a6.77,6.77,0,0,0-3.79-1.13c-6.73,0-9.29,8.49-3.54,11.83,11.09,6.46,25.19,10.33,40.52,10.33s29.43-3.87,40.53-10.33c5.74-3.34,3.18-11.83-3.56-11.83Z"/><path class="cls-2" d="M283.24,92.87a9.77,9.77,0,0,1-1.86-.18,9.82,9.82,0,0,1-7.83-11.5l12.12-62.72a9.85,9.85,0,0,1,2.23-4.57,9.88,9.88,0,0,1,13.91-1l48.55,41.79a9.88,9.88,0,0,1,2.88,4.21,9.76,9.76,0,0,1,.37,5.08,9.81,9.81,0,0,1-6.47,7.44L286.47,92.33A9.86,9.86,0,0,1,283.24,92.87Zm12.12-78.71a6.47,6.47,0,0,0-2,.34,6.24,6.24,0,0,0-2.66,1.8,6.12,6.12,0,0,0-1.39,2.87L277.15,81.89a6.18,6.18,0,0,0,4.92,7.21,6.36,6.36,0,0,0,3.21-.23L346,67.94a6.13,6.13,0,0,0,2.66-1.79,6.14,6.14,0,0,0,1.17-6.05,6.24,6.24,0,0,0-1.8-2.64l-48.56-41.8a6.24,6.24,0,0,0-2.89-1.39A6.62,6.62,0,0,0,295.36,14.16Z"/><path class="cls-1" d="M354.44,95.4a7.09,7.09,0,0,1-1.22-.1,7.46,7.46,0,0,1-3.55-1.6L314.5,65a7.49,7.49,0,0,1-1-10.54,7.68,7.68,0,0,1,3.16-2.26l42.55-15.95a7.51,7.51,0,0,1,10.08,8.23l-7.39,44.62a7.44,7.44,0,0,1-1.61,3.54,7.53,7.53,0,0,1-3.17,2.25A7.43,7.43,0,0,1,354.44,95.4Zm7.38-55.94a3.76,3.76,0,0,0-1.36.25L317.9,55.66a3.94,3.94,0,0,0-1.61,1.16,3.8,3.8,0,0,0-.82,1.8,3.84,3.84,0,0,0,.19,2,3.91,3.91,0,0,0,1.16,1.62L352,90.87a3.92,3.92,0,0,0,1.82.82,3.86,3.86,0,0,0,4.44-3.16l7.38-44.62a3.83,3.83,0,0,0-3.18-4.4A4.46,4.46,0,0,0,361.82,39.46Z"/></svg>